<svg width="61" height="16" viewBox="0 0 61 16" fill="none" xmlns="http://www.w3.org/2000/svg">
<path d="M44.8126 5.4608L44.0465 6.78238C43.6634 6.58855 43.2564 6.41234 42.8015 6.28899L43.4001 5.28458C43.6874 4.80881 43.3522 4.26256 42.5861 4.01586C42.203 3.91014 41.6763 3.80441 41.0059 3.80441C40.3355 3.80441 39.8088 3.89251 39.4018 4.03348C38.6357 4.28018 38.3005 4.82643 38.5878 5.30221L39.1863 6.30661C38.7315 6.42996 38.3244 6.58855 37.9414 6.8L37.1752 5.47842C36.6007 4.43877 37.4865 3.31102 39.1385 2.97621C39.6652 2.87049 40.2637 2.8 41.0059 2.8C41.7481 2.8 42.3466 2.87049 42.8734 2.97621C44.5253 3.31102 45.4112 4.43877 44.8126 5.4608Z" fill="#A9E884"/>
<path d="M38.31 4.418H43.756L45.002 5.846L44.33 11.586L42.748 13H37.302L36.056 11.586L36.448 8.254L38.38 7.12H36.574L36.728 5.846L38.31 4.418ZM39.794 10.298H40.886L41.264 7.12H40.172L39.794 10.298Z" fill="#A9E884"/>
<path d="M4.344 10.384L4.62 8.032H7.848L7.272 13H1.08L0.012 11.788L0.432 8.188L2.088 7.216H0.54L0.708 5.812L2.064 4.6H8.1L7.8 7.216H3.78L3.408 10.384H4.344ZM17.2403 4.6L13.8923 10.048L13.5443 13H10.3163L10.6523 10.048L9.86025 7.936L11.0843 7.216H9.58425L8.60025 4.6H12.1403L12.5843 7.408L13.6883 4.6H17.2403ZM23.5035 4.6H27.4155L26.4315 13H23.1915L24.2835 7.288L22.3035 13H20.7555L20.1195 7.288L19.8675 13H16.6275L17.1915 8.188L18.8475 7.216H17.3115L17.6235 4.6H21.5235L21.9675 9.316L23.5035 4.6ZM31.6956 10.384L31.9716 8.032H35.1996L34.6236 13H28.4316L27.3636 11.788L27.7836 8.188L29.4396 7.216H27.8916L28.0596 5.812L29.4156 4.6H35.4516L35.1516 7.216H31.1316L30.7596 10.384H31.6956Z" fill="black"/>
<path d="M46.096 11.116H48.136L47.92 13H45.88L46.096 11.116ZM49.3662 7.216L49.6782 4.6H52.9062L51.9222 13H48.6822L49.2462 8.188L50.9022 7.216H49.3662ZM54.9078 4.6H59.8878L60.9558 5.812L60.2598 11.788L58.8918 13H53.9238L52.8558 11.788L53.2758 8.188L54.9318 7.216H53.3838L53.5518 5.812L54.9078 4.6ZM57.1878 10.384L57.5598 7.216H56.6238L56.2518 10.384H57.1878Z" fill="black"/>
</svg>
