<svg width="131" height="47" viewBox="0 0 131 47" fill="none" xmlns="http://www.w3.org/2000/svg">
<g clip-path="url(#clip0_318_2305)">
<path d="M23.9288 19.9887H13.9985V27.0113H23.9288V19.9887Z" fill="#9ECC3B"/>
<path fill-rule="evenodd" clip-rule="evenodd" d="M37.0681 15.2369L44.0673 19.2897V27.7103L37.0681 31.7631V15.2369Z" fill="#9ECC3B"/>
<path fill-rule="evenodd" clip-rule="evenodd" d="M27.0439 0L34.0432 4.05279V42.9472L27.0439 47V0Z" fill="#9ECC3B"/>
<path fill-rule="evenodd" clip-rule="evenodd" d="M13.9985 27.7103V47.0036L6.99927 42.9472V31.7631L13.9985 27.7067V27.7103ZM6.99927 4.05279L13.9985 0V19.2897L6.99927 15.2369V4.05279Z" fill="#9ECC3B"/>
<path fill-rule="evenodd" clip-rule="evenodd" d="M6.99923 31.7631L0 27.7103V19.2897L6.99923 15.2369V31.7631Z" fill="#9ECC3B"/>
<path d="M56.9504 35.3596H54.7449V31.7378H56.9504V32.0022H55.0697V33.3314H56.8421V33.5885H55.0697V35.0952H56.9504V35.3596Z" fill="#1B1F26"/>
<path d="M58.1128 35.3596H57.7915V31.506H58.1128V35.3596Z" fill="#1B1F26"/>
<path d="M60.2279 32.6106C60.4878 32.6106 60.7008 32.6649 60.874 32.77C61.0437 32.875 61.1737 33.0235 61.2639 33.2082C61.3505 33.3929 61.3975 33.6102 61.3975 33.8529V34.0448H59.2569C59.2569 34.407 59.3507 34.6823 59.5348 34.8706C59.7189 35.0589 59.9824 35.1531 60.3254 35.1531C60.5131 35.1531 60.6755 35.1386 60.8163 35.1133C60.9535 35.0879 61.1087 35.0372 61.2711 34.972V35.2364C61.1195 35.298 60.9715 35.3415 60.8271 35.3668C60.6791 35.3922 60.5095 35.4066 60.3145 35.4066C60.0185 35.4066 59.7659 35.3523 59.5565 35.24C59.3471 35.1278 59.1919 34.9684 59.0836 34.762C58.9753 34.5555 58.9248 34.3129 58.9248 34.034C58.9248 33.7551 58.9753 33.5124 59.0764 33.2988C59.1775 33.0851 59.3255 32.9185 59.5204 32.7953C59.7153 32.6722 59.9536 32.6106 60.2279 32.6106ZM60.2279 32.8533C59.95 32.8533 59.7262 32.9366 59.5565 33.0996C59.3868 33.2625 59.2894 33.498 59.2569 33.8058H61.0581C61.0581 33.6175 61.0293 33.4509 60.9679 33.3096C60.9065 33.1684 60.8163 33.0561 60.6936 32.9764C60.5708 32.8967 60.4156 32.8533 60.2243 32.8533H60.2279Z" fill="#1B1F26"/>
<path d="M62.7441 35.3596L61.5962 32.6613H61.9355L62.6791 34.4505C62.7116 34.5265 62.7441 34.599 62.773 34.675C62.8018 34.7511 62.8271 34.8199 62.8488 34.8851C62.8704 34.9503 62.8885 35.0119 62.9065 35.0698H62.9246C62.9426 35.0119 62.9643 34.9503 62.9895 34.8815C63.0148 34.8127 63.0401 34.7439 63.0726 34.6678C63.1014 34.5917 63.1303 34.5193 63.1556 34.4505L63.8992 32.6613H64.2421L63.0942 35.3596H62.7513H62.7441Z" fill="#1B1F26"/>
<path d="M65.7869 32.6142C66.1262 32.6142 66.3753 32.6903 66.5413 32.8388C66.7074 32.9873 66.7904 33.2227 66.7904 33.5487V35.3596H66.5486L66.4908 34.9032H66.4727C66.4006 35.0046 66.3211 35.0915 66.2273 35.1676C66.1334 35.2437 66.0251 35.3016 65.8952 35.3451C65.7652 35.3885 65.6064 35.4103 65.4187 35.4103C65.231 35.4103 65.0686 35.3813 64.9278 35.3197C64.7906 35.2618 64.6823 35.1748 64.6065 35.0626C64.5307 34.9503 64.4946 34.8127 64.4946 34.6533C64.4946 34.3853 64.6174 34.1825 64.8592 34.0412C65.1011 33.9 65.4584 33.8203 65.9241 33.7986L66.4691 33.7768V33.5849C66.4691 33.3169 66.4114 33.1285 66.2923 33.0199C66.1731 32.9112 65.9999 32.8533 65.7652 32.8533C65.61 32.8533 65.4656 32.8714 65.3249 32.9076C65.1841 32.9438 65.0433 32.9945 64.8989 33.0561L64.7978 32.8279C64.935 32.7627 65.0902 32.712 65.2599 32.6722C65.4295 32.6323 65.6028 32.6106 65.7833 32.6106L65.7869 32.6142ZM65.9602 34.0123C65.5812 34.0304 65.2996 34.0883 65.1119 34.1933C64.9242 34.2948 64.8303 34.4505 64.8303 34.6569C64.8303 34.8235 64.8881 34.9503 65.0036 35.0336C65.1191 35.1205 65.2779 35.164 65.4765 35.164C65.7941 35.164 66.0396 35.0843 66.2092 34.9249C66.3789 34.7656 66.4655 34.5447 66.4727 34.2549V33.9905L65.9602 34.0123Z" fill="#1B1F26"/>
<path d="M68.5917 35.1676C68.6747 35.1676 68.7542 35.1604 68.8263 35.1495C68.8985 35.1386 68.9671 35.1241 69.0249 35.106V35.3378C68.9671 35.3596 68.8985 35.374 68.8155 35.3885C68.7325 35.403 68.6423 35.4103 68.5484 35.4103C68.3824 35.4103 68.2416 35.3813 68.1261 35.327C68.0106 35.2726 67.9203 35.1857 67.8589 35.0662C67.7976 34.9467 67.7651 34.7946 67.7651 34.6098V32.8967H67.3247V32.7338L67.7651 32.6432L67.8842 32.0203H68.0864V32.6649H69.0104V32.8967H68.0864V34.599C68.0864 34.7837 68.1261 34.9249 68.2091 35.0227C68.2921 35.1205 68.4185 35.1676 68.5917 35.1676Z" fill="#1B1F26"/>
<path d="M70.7936 32.6106C71.0535 32.6106 71.2665 32.6649 71.4397 32.77C71.613 32.875 71.7393 33.0235 71.8296 33.2082C71.9162 33.3929 71.9631 33.6102 71.9631 33.8529V34.0448H69.8226C69.8226 34.407 69.9164 34.6823 70.1005 34.8706C70.2846 35.0589 70.5481 35.1531 70.891 35.1531C71.0788 35.1531 71.2412 35.1386 71.382 35.1133C71.5191 35.0879 71.6744 35.0372 71.8368 34.972V35.2364C71.6852 35.298 71.5372 35.3415 71.3928 35.3668C71.2484 35.3922 71.0751 35.4066 70.8802 35.4066C70.5842 35.4066 70.3315 35.3523 70.1222 35.24C69.9128 35.1278 69.7576 34.9684 69.6493 34.762C69.541 34.5555 69.4905 34.3129 69.4905 34.034C69.4905 33.7551 69.541 33.5124 69.6421 33.2988C69.7432 33.0851 69.8912 32.9185 70.0861 32.7953C70.281 32.6722 70.5192 32.6106 70.7936 32.6106ZM70.7936 32.8533C70.5156 32.8533 70.2918 32.9366 70.1258 33.0996C69.9597 33.2625 69.8587 33.498 69.8262 33.8058H71.6274C71.6274 33.6175 71.5985 33.4509 71.5372 33.3096C71.4758 33.1684 71.3856 33.0561 71.2628 32.9764C71.1401 32.8967 70.9849 32.8533 70.7936 32.8533Z" fill="#1B1F26"/>
<path d="M75.2445 33.6754L76.3923 31.7378H76.7461L75.4069 33.9579V35.3559H75.0856V33.976L73.7356 31.7341H74.0966L75.2445 33.6718V33.6754Z" fill="#1B1F26"/>
<path d="M79.4642 34.0086C79.4642 34.2187 79.4354 34.407 79.3776 34.5809C79.3198 34.7547 79.2332 34.8996 79.1177 35.0227C79.0022 35.1459 78.8614 35.24 78.6918 35.3089C78.5221 35.3777 78.3308 35.4103 78.1106 35.4103C77.9048 35.4103 77.7208 35.3777 77.5547 35.3125C77.3923 35.2473 77.2515 35.1531 77.136 35.03C77.0205 34.9068 76.9302 34.7583 76.8725 34.5845C76.8147 34.4106 76.7822 34.2223 76.7822 34.0123C76.7822 33.7189 76.8364 33.469 76.9447 33.2589C77.053 33.0525 77.2082 32.8931 77.4103 32.7808C77.6161 32.6686 77.8579 32.6142 78.1395 32.6142C78.421 32.6142 78.6665 32.6722 78.8614 32.7881C79.06 32.904 79.208 33.067 79.309 33.277C79.4101 33.4871 79.4606 33.7334 79.4606 34.0123L79.4642 34.0086ZM77.1179 34.0086C77.1179 34.2368 77.154 34.4396 77.2262 34.6135C77.2984 34.7873 77.4067 34.9213 77.5583 35.0155C77.7099 35.1097 77.8976 35.1567 78.1214 35.1567C78.3452 35.1567 78.5474 35.1097 78.6954 35.0119C78.847 34.9141 78.9553 34.7801 79.0275 34.6062C79.0997 34.4324 79.1358 34.2332 79.1358 34.005C79.1358 33.7768 79.1033 33.5776 79.0347 33.4074C78.9661 33.2336 78.8614 33.0996 78.7134 33.0018C78.5654 32.904 78.3741 32.8533 78.1395 32.8533C77.7966 32.8533 77.5439 32.9547 77.3742 33.1575C77.2046 33.3603 77.1215 33.6428 77.1215 34.005L77.1179 34.0086Z" fill="#1B1F26"/>
<path d="M82.6408 32.6613V35.3596H82.3773L82.334 34.8996H82.3159C82.2618 34.9974 82.1896 35.0843 82.0921 35.164C81.9947 35.2437 81.8828 35.3016 81.7528 35.3451C81.6229 35.3885 81.4676 35.4103 81.298 35.4103C81.067 35.4103 80.872 35.374 80.7168 35.3016C80.5616 35.2292 80.4425 35.1205 80.3667 34.9756C80.2909 34.8308 80.2476 34.6497 80.2476 34.4324V32.6613H80.5688V34.407C80.5688 34.6642 80.6338 34.8525 80.7638 34.9756C80.8937 35.0988 81.085 35.1604 81.3341 35.1604C81.5543 35.1604 81.7384 35.1241 81.8864 35.0481C82.0344 34.972 82.1427 34.8561 82.2148 34.704C82.287 34.5519 82.3231 34.3636 82.3231 34.1354V32.6613H82.6444H82.6408Z" fill="#1B1F26"/>
<path d="M84.857 32.6142C84.9328 32.6142 85.005 32.6179 85.0736 32.6287C85.1422 32.636 85.2071 32.6468 85.2613 32.6613L85.218 32.9257C85.1566 32.9112 85.0988 32.9004 85.0375 32.8931C84.9761 32.8859 84.9111 32.8786 84.8426 32.8786C84.7054 32.8786 84.5863 32.904 84.478 32.9511C84.3697 32.9982 84.2758 33.067 84.1964 33.1539C84.117 33.2408 84.0592 33.3458 84.0159 33.469C83.9726 33.5921 83.9546 33.7261 83.9546 33.8782V35.3596H83.6333V32.6613H83.904L83.9365 33.1684H83.9546C84.0051 33.0633 84.0701 32.9692 84.1531 32.8859C84.2361 32.8026 84.3408 32.7374 84.4599 32.6867C84.579 32.636 84.7126 32.6142 84.8606 32.6142H84.857Z" fill="#1B1F26"/>
<path d="M88.9937 33.5197H90.4521V35.1966C90.2535 35.269 90.0442 35.3197 89.8276 35.3559C89.611 35.3922 89.3764 35.4103 89.1237 35.4103C88.7014 35.4103 88.344 35.3378 88.0516 35.1893C87.7628 35.0408 87.539 34.8308 87.391 34.5519C87.2394 34.273 87.1672 33.9434 87.1672 33.5523C87.1672 33.1829 87.2503 32.8605 87.4163 32.5816C87.5824 32.3028 87.817 32.0818 88.1238 31.9225C88.4306 31.7631 88.7952 31.6798 89.2248 31.6798C89.445 31.6798 89.6543 31.6979 89.8529 31.7341C90.0478 31.7704 90.2355 31.8247 90.4088 31.9007L90.286 32.1579C90.1164 32.0855 89.9431 32.0348 89.7626 31.9985C89.5821 31.9623 89.398 31.9442 89.2103 31.9442C88.8566 31.9442 88.5534 32.013 88.2971 32.147C88.0408 32.281 87.8459 32.4694 87.7123 32.7084C87.5787 32.9474 87.5102 33.2299 87.5102 33.5487C87.5102 33.8964 87.5751 34.1897 87.7015 34.4251C87.8278 34.6606 88.0191 34.8416 88.2682 34.9612C88.5173 35.0843 88.8241 35.1422 89.1923 35.1422C89.3908 35.1422 89.5677 35.1314 89.7193 35.106C89.8745 35.0807 90.0117 35.0481 90.1344 35.0119V33.7732H88.9974V33.5088L88.9937 33.5197Z" fill="#1B1F26"/>
<path d="M90.8889 32.6613H91.2318L91.9393 34.3382C91.979 34.436 92.0188 34.5265 92.0512 34.6135C92.0837 34.6968 92.1162 34.7765 92.1415 34.8489C92.1668 34.9213 92.1884 34.9901 92.2101 35.0481H92.2281C92.2534 34.972 92.2895 34.8706 92.3364 34.7475C92.3797 34.6243 92.4339 34.4903 92.4952 34.3455L93.1919 32.6613H93.5348L92.1848 35.8413C92.1162 35.997 92.044 36.131 91.961 36.2433C91.878 36.3556 91.7805 36.4389 91.6686 36.5004C91.5567 36.5584 91.4195 36.591 91.2643 36.591C91.1921 36.591 91.1272 36.5873 91.0694 36.5765C91.0116 36.5692 90.9575 36.5584 90.9034 36.5439V36.3012C90.9503 36.3121 91.0008 36.3193 91.0514 36.3302C91.1019 36.3411 91.1596 36.3447 91.2246 36.3447C91.3293 36.3447 91.4232 36.3266 91.499 36.2867C91.5784 36.2469 91.647 36.1889 91.7083 36.1093C91.7697 36.0296 91.8238 35.9318 91.8708 35.8123L92.0693 35.3559L90.8925 32.6686L90.8889 32.6613Z" fill="#1B1F26"/>
<path d="M97.1482 32.6106C97.4478 32.6106 97.6824 32.6867 97.8485 32.8388C98.0145 32.9909 98.0975 33.2299 98.0975 33.5595V35.3596H97.7763V33.5704C97.7763 33.3314 97.7149 33.1503 97.5958 33.0344C97.4767 32.9185 97.3106 32.8605 97.1049 32.8605C96.8161 32.8605 96.5959 32.9366 96.4443 33.0851C96.2927 33.2372 96.2169 33.469 96.2169 33.7805V35.3559H95.8956V33.5668C95.8956 33.4038 95.8667 33.2698 95.8126 33.1648C95.7584 33.0597 95.6826 32.9837 95.5816 32.933C95.4805 32.8823 95.3614 32.8569 95.217 32.8569C95.0293 32.8569 94.8705 32.8931 94.7369 32.9619C94.6069 33.0344 94.5059 33.1394 94.4373 33.2806C94.3687 33.4219 94.3326 33.603 94.3326 33.8239V35.3559H94.0186V32.6577H94.2712L94.3218 33.0887H94.3398C94.394 32.9981 94.4589 32.9148 94.5456 32.846C94.6286 32.7736 94.7333 32.7193 94.8524 32.6722C94.9715 32.6287 95.1087 32.607 95.2639 32.607C95.4841 32.607 95.6718 32.6505 95.8198 32.7338C95.9678 32.8171 96.0761 32.9438 96.1339 33.114H96.1555C96.2421 32.9511 96.3721 32.8279 96.5417 32.7374C96.7114 32.6505 96.9135 32.607 97.141 32.607L97.1482 32.6106Z" fill="#1B1F26"/>
<path d="M102.79 35.3596H100.584V31.7378H102.79V32.0022H100.909V33.3314H102.682V33.5885H100.909V35.0952H102.79V35.3596Z" fill="#1B1F26"/>
<path d="M104.349 33.976L103.31 32.6613H103.682L104.544 33.7768L105.411 32.6613H105.775L104.739 33.976L105.837 35.3596H105.465L104.541 34.1716L103.624 35.3596H103.259L104.349 33.976Z" fill="#1B1F26"/>
<path d="M107.804 32.6106C108.187 32.6106 108.486 32.7265 108.703 32.9619C108.919 33.1973 109.028 33.5414 109.028 33.9978C109.028 34.302 108.977 34.5591 108.876 34.7728C108.775 34.9829 108.631 35.1423 108.446 35.2509C108.262 35.3596 108.039 35.4139 107.779 35.4139C107.602 35.4139 107.45 35.3885 107.317 35.3415C107.187 35.2944 107.075 35.2328 106.992 35.1531C106.905 35.0771 106.837 34.9901 106.79 34.896H106.768C106.775 34.9793 106.782 35.0734 106.786 35.1712C106.79 35.2726 106.793 35.3632 106.793 35.4465V36.5584H106.472V32.6649H106.735L106.775 33.172H106.793C106.844 33.0742 106.912 32.9837 107.003 32.8967C107.093 32.8134 107.205 32.7446 107.338 32.6903C107.472 32.6396 107.631 32.6106 107.815 32.6106H107.804ZM107.761 32.8605C107.54 32.8605 107.356 32.904 107.216 32.9873C107.075 33.0706 106.966 33.1973 106.894 33.3603C106.822 33.5233 106.786 33.7261 106.786 33.9652V34.0159C106.786 34.2694 106.822 34.4831 106.891 34.6533C106.959 34.8235 107.064 34.9503 107.205 35.0372C107.345 35.1205 107.522 35.164 107.735 35.164C107.948 35.164 108.122 35.1169 108.262 35.0227C108.403 34.9286 108.511 34.7982 108.584 34.6207C108.656 34.4469 108.692 34.2368 108.692 33.9941C108.692 33.6247 108.616 33.3458 108.461 33.1503C108.306 32.9547 108.071 32.8605 107.757 32.8605H107.761Z" fill="#1B1F26"/>
<path d="M110.966 32.6106C111.226 32.6106 111.439 32.6649 111.612 32.77C111.782 32.875 111.912 33.0235 112.002 33.2082C112.089 33.3929 112.136 33.6102 112.136 33.8529V34.0448H109.999C109.999 34.407 110.092 34.6823 110.277 34.8706C110.461 35.0589 110.724 35.1531 111.067 35.1531C111.255 35.1531 111.417 35.1386 111.558 35.1133C111.699 35.0879 111.847 35.0372 112.013 34.972V35.2364C111.861 35.298 111.713 35.3415 111.569 35.3668C111.421 35.3922 111.251 35.4066 111.056 35.4066C110.76 35.4066 110.508 35.3523 110.298 35.24C110.089 35.1278 109.934 34.9684 109.825 34.762C109.717 34.5555 109.667 34.3129 109.667 34.034C109.667 33.7551 109.717 33.5124 109.818 33.2988C109.919 33.0851 110.067 32.9185 110.262 32.7953C110.457 32.6722 110.695 32.6106 110.97 32.6106H110.966ZM110.966 32.8533C110.688 32.8533 110.464 32.9366 110.295 33.0996C110.125 33.2625 110.027 33.498 109.995 33.8058H111.796C111.796 33.6175 111.767 33.4509 111.706 33.3096C111.645 33.1684 111.554 33.0561 111.432 32.9764C111.309 32.8967 111.154 32.8533 110.962 32.8533H110.966Z" fill="#1B1F26"/>
<path d="M114.168 32.6142C114.244 32.6142 114.316 32.6179 114.385 32.6287C114.453 32.636 114.518 32.6468 114.572 32.6613L114.529 32.9257C114.468 32.9112 114.41 32.9004 114.348 32.8931C114.287 32.8859 114.222 32.8786 114.15 32.8786C114.016 32.8786 113.894 32.904 113.785 32.9511C113.677 32.9982 113.583 33.067 113.504 33.1539C113.424 33.2408 113.367 33.3458 113.323 33.469C113.28 33.5921 113.262 33.7261 113.262 33.8782V35.3596H112.941V32.6613H113.211L113.244 33.1684H113.262C113.309 33.0633 113.377 32.9692 113.46 32.8859C113.543 32.8026 113.648 32.7374 113.767 32.6867C113.886 32.636 114.02 32.6142 114.168 32.6142Z" fill="#1B1F26"/>
<path d="M115.316 31.6617C115.388 31.6617 115.442 31.6798 115.478 31.7197C115.514 31.7595 115.536 31.8102 115.536 31.879C115.536 31.9515 115.518 32.0058 115.478 32.0456C115.438 32.0855 115.388 32.1036 115.316 32.1036C115.247 32.1036 115.197 32.0855 115.157 32.0456C115.117 32.0058 115.099 31.9515 115.099 31.879C115.099 31.8066 115.117 31.7595 115.157 31.7197C115.197 31.6798 115.247 31.6617 115.316 31.6617ZM115.475 32.6613V35.3596H115.16V32.6613H115.475Z" fill="#1B1F26"/>
<path d="M117.597 32.6106C117.857 32.6106 118.07 32.6649 118.243 32.77C118.417 32.875 118.543 33.0235 118.633 33.2082C118.72 33.3929 118.767 33.6102 118.767 33.8529V34.0448H116.63C116.63 34.407 116.724 34.6823 116.908 34.8706C117.092 35.0589 117.355 35.1531 117.698 35.1531C117.886 35.1531 118.048 35.1386 118.189 35.1133C118.33 35.0879 118.481 35.0372 118.644 34.972V35.2364C118.492 35.298 118.344 35.3415 118.2 35.3668C118.052 35.3922 117.882 35.4066 117.687 35.4066C117.391 35.4066 117.139 35.3523 116.929 35.24C116.72 35.1278 116.565 34.9684 116.456 34.762C116.352 34.5555 116.298 34.3129 116.298 34.034C116.298 33.7551 116.348 33.5124 116.449 33.2988C116.55 33.0851 116.698 32.9185 116.893 32.7953C117.088 32.6722 117.326 32.6106 117.601 32.6106H117.597ZM117.597 32.8533C117.319 32.8533 117.095 32.9366 116.926 33.0996C116.756 33.2625 116.659 33.498 116.626 33.8058H118.427C118.427 33.6175 118.398 33.4509 118.337 33.3096C118.276 33.1684 118.185 33.0561 118.063 32.9764C117.94 32.8967 117.785 32.8533 117.593 32.8533H117.597Z" fill="#1B1F26"/>
<path d="M120.911 32.6106C121.254 32.6106 121.514 32.6903 121.694 32.8497C121.875 33.009 121.965 33.2589 121.965 33.5994V35.3596H121.651V33.6139C121.651 33.3531 121.586 33.1611 121.452 33.0416C121.322 32.9185 121.128 32.8605 120.871 32.8605C120.546 32.8605 120.297 32.9474 120.135 33.1177C119.972 33.2879 119.886 33.5487 119.886 33.8891V35.3596H119.572V32.6613H119.824L119.875 33.1285H119.893C119.951 33.0307 120.023 32.9438 120.117 32.8641C120.211 32.7881 120.323 32.7265 120.456 32.6794C120.59 32.6324 120.741 32.6106 120.911 32.6106Z" fill="#1B1F26"/>
<path d="M124.12 35.4103C123.828 35.4103 123.578 35.3559 123.373 35.2437C123.167 35.135 123.012 34.9756 122.907 34.7692C122.799 34.5628 122.745 34.3129 122.745 34.0231C122.745 33.7334 122.806 33.4617 122.929 33.2517C123.051 33.0416 123.217 32.8823 123.43 32.7736C123.643 32.6649 123.896 32.607 124.185 32.607C124.326 32.607 124.463 32.6179 124.589 32.6432C124.716 32.6686 124.827 32.7012 124.925 32.741L124.842 32.9837C124.741 32.9474 124.633 32.9185 124.517 32.8931C124.401 32.8714 124.29 32.8605 124.185 32.8605C123.943 32.8605 123.745 32.9076 123.578 33.0018C123.416 33.0959 123.293 33.2263 123.207 33.4002C123.12 33.574 123.08 33.7805 123.08 34.0195C123.08 34.244 123.116 34.4396 123.189 34.6098C123.261 34.7801 123.376 34.9141 123.528 35.0082C123.683 35.1024 123.878 35.1495 124.12 35.1495C124.268 35.1495 124.405 35.135 124.535 35.1097C124.665 35.0843 124.784 35.0481 124.892 35.0046V35.269C124.795 35.3052 124.683 35.3378 124.553 35.3668C124.427 35.3922 124.282 35.4066 124.12 35.4066V35.4103Z" fill="#1B1F26"/>
<path d="M126.73 32.6106C126.99 32.6106 127.203 32.6649 127.376 32.77C127.546 32.875 127.676 33.0235 127.766 33.2082C127.852 33.3929 127.899 33.6102 127.899 33.8529V34.0448H125.759C125.759 34.407 125.853 34.6823 126.037 34.8706C126.221 35.0589 126.488 35.1531 126.827 35.1531C127.015 35.1531 127.177 35.1386 127.318 35.1133C127.455 35.0879 127.607 35.0372 127.773 34.972V35.2364C127.621 35.298 127.473 35.3415 127.329 35.3668C127.181 35.3922 127.011 35.4066 126.816 35.4066C126.52 35.4066 126.268 35.3523 126.058 35.24C125.849 35.1278 125.694 34.9684 125.586 34.762C125.477 34.5555 125.423 34.3129 125.423 34.034C125.423 33.7551 125.474 33.5124 125.575 33.2988C125.676 33.0851 125.824 32.9185 126.019 32.7953C126.214 32.6722 126.452 32.6106 126.726 32.6106H126.73ZM126.73 32.8533C126.452 32.8533 126.228 32.9366 126.058 33.0996C125.889 33.2625 125.791 33.498 125.759 33.8058H127.56C127.56 33.6175 127.531 33.4509 127.47 33.3096C127.408 33.1684 127.318 33.0561 127.195 32.9764C127.073 32.8967 126.918 32.8533 126.726 32.8533H126.73Z" fill="#1B1F26"/>
<path d="M57.185 19.4092L63.4154 19.4237L63.3974 27.0548C62.6213 27.3083 61.7694 27.5148 60.8381 27.6669C59.9068 27.819 58.8997 27.895 57.8167 27.8914C56.3368 27.8914 55.0625 27.6089 53.9941 27.0512C52.9256 26.4934 52.1026 25.664 51.5286 24.5558C50.9547 23.4475 50.6695 22.064 50.6731 20.4052C50.6731 18.8949 50.9872 17.5874 51.6008 16.4828C52.2145 15.3781 53.1097 14.527 54.2792 13.9294C55.4488 13.3318 56.8927 13.0348 58.6109 13.0385C59.47 13.0385 60.3038 13.1218 61.1124 13.2884C61.921 13.4513 62.6357 13.6686 63.2566 13.9403L62.1087 16.6711C61.6178 16.4284 61.0691 16.2329 60.4735 16.0916C59.8743 15.9504 59.2462 15.8779 58.582 15.8743C57.6651 15.8743 56.8999 16.0735 56.279 16.4755C55.6581 16.8776 55.1925 17.4281 54.882 18.1198C54.5716 18.8152 54.4128 19.6048 54.4128 20.4957C54.4128 21.4265 54.5427 22.2342 54.8099 22.9151C55.077 23.596 55.4777 24.1211 56.0191 24.4869C56.5606 24.8527 57.2464 25.0374 58.0766 25.0374C58.4412 25.0374 58.7914 25.0193 59.1235 24.9795C59.4556 24.9397 59.7263 24.8998 59.9356 24.86L59.9429 22.1871L57.1742 22.1799L57.1814 19.4056L57.185 19.4092Z" fill="#1B1F26"/>
<path d="M71.808 18.9999L74.6957 13.2811L78.6051 13.292L73.6201 22.0857L73.6056 27.7321L69.9706 27.7248L69.9851 22.2016L65.0217 13.2666L68.9527 13.2775L71.8116 19.0108L71.808 18.9999Z" fill="#1B1F26"/>
<path d="M86.8064 27.7574L83.4529 16.8631H83.3699C83.3988 17.1311 83.4204 17.515 83.4421 18.0076C83.4638 18.5001 83.4854 19.0361 83.5107 19.6156C83.536 20.1951 83.5504 20.7348 83.5504 21.2346L83.536 27.7502L80.345 27.7429L80.3775 13.292L85.2361 13.3028L88.5679 23.998H88.6509L92.1198 13.321L96.9785 13.3318L96.946 27.7828L93.607 27.7755L93.6215 21.1585C93.6215 20.713 93.6359 20.2096 93.6576 19.6518C93.6792 19.0941 93.7009 18.5581 93.7262 18.0546C93.7478 17.5476 93.7659 17.1673 93.7803 16.9101H93.6973L90.185 27.7683L86.8064 27.761V27.7574Z" fill="#1B1F26"/>
<path d="M106.389 19.5287L112.619 19.5432L112.601 27.1743C111.825 27.4278 110.973 27.6343 110.046 27.7864C109.118 27.9385 108.107 28.0146 107.024 28.0109C105.544 28.0109 104.27 27.7284 103.202 27.1707C102.133 26.6165 101.31 25.7835 100.736 24.6753C100.162 23.567 99.877 22.1835 99.8806 20.5247C99.8806 19.0144 100.195 17.7069 100.808 16.6023C101.426 15.4976 102.317 14.6465 103.487 14.0489C104.656 13.4513 106.1 13.1543 107.818 13.158C108.678 13.158 109.511 13.2413 110.32 13.4079C111.128 13.5709 111.843 13.7882 112.464 14.0598L111.316 16.7906C110.822 16.548 110.277 16.3524 109.681 16.2111C109.082 16.0699 108.454 15.9975 107.79 15.9938C106.873 15.9938 106.107 16.193 105.487 16.595C104.866 16.9971 104.4 17.5476 104.09 18.2393C103.779 18.9347 103.62 19.7243 103.62 20.6152C103.62 21.546 103.75 22.3537 104.017 23.0346C104.284 23.7155 104.685 24.2407 105.227 24.6065C105.768 24.9723 106.454 25.157 107.284 25.157C107.649 25.157 107.999 25.1389 108.331 25.099C108.663 25.0592 108.934 25.0193 109.143 24.9795L109.15 22.3066L106.382 22.2994L106.389 19.5251V19.5287Z" fill="#1B1F26"/>
<path d="M129.834 20.6152C129.834 21.7344 129.682 22.7485 129.394 23.6612C129.101 24.5702 128.665 25.3562 128.08 26.0153C127.495 26.6745 126.744 27.1779 125.827 27.5292C124.91 27.8769 123.828 28.0508 122.571 28.0472C121.319 28.0472 120.232 27.8661 119.319 27.5148C118.406 27.1634 117.651 26.6528 117.063 25.99C116.475 25.3272 116.034 24.5413 115.749 23.6286C115.464 22.7159 115.319 21.6945 115.323 20.5609C115.323 19.0651 115.59 17.7576 116.114 16.6458C116.637 15.5339 117.435 14.6755 118.507 14.0707C119.579 13.4658 120.954 13.1652 122.629 13.1688C124.29 13.1725 125.658 13.4839 126.726 14.0996C127.795 14.7153 128.582 15.5809 129.087 16.6965C129.592 17.812 129.841 19.1158 129.838 20.6152H129.834ZM119.124 20.5899C119.124 21.5207 119.24 22.3283 119.478 23.0092C119.716 23.6901 120.088 24.2153 120.593 24.5811C121.099 24.9469 121.759 25.1316 122.579 25.1316C123.394 25.1316 124.059 24.9542 124.564 24.592C125.073 24.2298 125.437 23.7083 125.665 23.0274C125.892 22.3465 126.008 21.5388 126.008 20.608C126.008 19.1919 125.752 18.0764 125.235 17.2578C124.716 16.4393 123.846 16.0301 122.618 16.0264C121.788 16.0264 121.117 16.2075 120.611 16.5769C120.102 16.9464 119.731 17.4715 119.489 18.1524C119.247 18.8333 119.128 19.6446 119.124 20.5899Z" fill="#1B1F26"/>
</g>
<defs>
<clipPath id="clip0_318_2305">
<rect width="131" height="47" fill="white"/>
</clipPath>
</defs>
</svg>
