<svg width="15" height="15" viewBox="0 0 15 15" fill="none" xmlns="http://www.w3.org/2000/svg">
<rect width="15" height="15" rx="4" fill="black"/>
<path d="M10.9361 4.49559L10.2657 5.48678C9.9305 5.34141 9.57437 5.20925 9.17634 5.11674L9.70007 4.36344C9.95145 4.00661 9.65817 3.59692 8.9878 3.41189C8.65262 3.3326 8.19174 3.2533 7.60518 3.2533C7.01861 3.2533 6.55773 3.31938 6.2016 3.42511C5.53123 3.61013 5.23795 4.01982 5.48933 4.37665L6.01306 5.12996C5.61503 5.22247 5.2589 5.34141 4.92371 5.5L4.25335 4.50881C3.75058 3.72907 4.52569 2.88326 5.97116 2.63216C6.43204 2.55286 6.95576 2.5 7.60518 2.5C8.25459 2.5 8.77831 2.55286 9.23919 2.63216C10.6847 2.88326 11.4598 3.72907 10.9361 4.49559Z" fill="#BBF49C"/>
<path d="M7.344 9.884L7.62 7.532H10.848L10.272 12.5H4.08L3.012 11.288L3.432 7.688L5.088 6.716H3.54L3.708 5.312L5.064 4.1H11.1L10.8 6.716H6.78L6.408 9.884H7.344Z" fill="#A9E884"/>
</svg>
